<svg xmlns="http://www.w3.org/2000/svg" viewBox="0 0 154.36 41.82"><defs><style>.cls-1{fill:#fcfcfc;}.cls-2{fill:#a6b8e2;}</style></defs><g id="Layer_2" data-name="Layer 2"><g id="Layer_1-2" data-name="Layer 1"><path class="cls-1" d="M4.24,28.07c0-2.92-.09-5.25-.23-7.57H8.44L8.71,25h.14a9.69,9.69,0,0,1,8.86-5.15,8.26,8.26,0,0,1,7.91,5.62h.11a11.41,11.41,0,0,1,3.17-3.65,9.5,9.5,0,0,1,6.17-2c3.74,0,9.26,2.41,9.26,12.17V48.55h-5V32.68c0-5.43-2-8.65-6.09-8.65a6.67,6.67,0,0,0-6.07,4.59,8.58,8.58,0,0,0-.42,2.56V48.55h-5V31.71c0-4.46-2-7.68-5.83-7.68-3.18,0-5.51,2.54-6.36,5.09a8.16,8.16,0,0,0-.39,2.52V48.55h-5Z" transform="translate(-4.01 -7.37)"/><path class="cls-1" d="M55.41,12.57a3.16,3.16,0,1,1-6.32,0,3.1,3.1,0,0,1,3.17-3.18A3.05,3.05,0,0,1,55.41,12.57Zm-5.7,36v-28h5.08V48.55Z" transform="translate(-4.01 -7.37)"/><path class="cls-1" d="M60.39,7.37h5.07V24.88h.12a9.91,9.91,0,0,1,3.67-3.6,10.16,10.16,0,0,1,5.22-1.42c3.78,0,9.78,2.3,9.78,12V48.55H79.17V32.4c0-4.53-1.71-8.33-6.48-8.33a7.43,7.43,0,0,0-6.89,5.09,7,7,0,0,0-.34,2.43v17H60.39Z" transform="translate(-4.01 -7.37)"/><path class="cls-1" d="M105.23,48.55,104.78,45h-.15A10.44,10.44,0,0,1,96,49.18c-5.66,0-8.56-4-8.56-8,0-6.8,6-10.53,16.85-10.45v-.6c0-2.28-.64-6.5-6.38-6.47a13.68,13.68,0,0,0-7.31,2.09l-1.16-3.39a17.65,17.65,0,0,1,9.26-2.46c8.57,0,10.66,5.86,10.66,11.48V41.83a43.22,43.22,0,0,0,.43,6.72Zm-.8-14.33c-5.52-.11-11.84.88-11.84,6.3a4.5,4.5,0,0,0,4.77,4.89,7,7,0,0,0,6.83-4.7,5.2,5.2,0,0,0,.24-1.61Z" transform="translate(-4.01 -7.37)"/><path class="cls-1" d="M120.43,12.57a3.07,3.07,0,0,1-3.24,3.17,3,3,0,0,1-3.08-3.17,3.1,3.1,0,0,1,3.17-3.18A3.06,3.06,0,0,1,120.43,12.57Zm-5.7,36v-28h5.08V48.55Z" transform="translate(-4.01 -7.37)"/><path class="cls-1" d="M124.19,45.55a3.44,3.44,0,0,1,3.46-3.68,3.39,3.39,0,0,1,3.42,3.68,3.44,3.44,0,1,1-6.88,0Z" transform="translate(-4.01 -7.37)"/><path class="cls-2" d="M134.51,7.37h5.07V24.88h.12a10,10,0,0,1,3.67-3.6,10.16,10.16,0,0,1,5.22-1.42c3.78,0,9.78,2.3,9.78,12V48.55h-5.08V32.4c0-4.53-1.71-8.33-6.48-8.33a7.41,7.41,0,0,0-6.88,5.09,6.76,6.76,0,0,0-.35,2.43v17h-5.07Z" transform="translate(-4.01 -7.37)"/></g></g></svg>